<svg xmlns="http://www.w3.org/2000/svg" width="123.938" height="107.121" viewBox="0 0 123.938 107.121">
  <defs>
    <style>
      .cls-1 {
        fill: #caeda5;
      }

      .cls-2 {
        fill: #a8e169;
      }

      .cls-3 {
        fill: #85d52d;
      }

      .cls-4 {
        fill: #73ba25;
      }

      .cls-5 {
        fill: #69aa22;
      }

      .cls-6 {
        fill: #f4f5f6;
      }

      .cls-7 {
        fill: #4a7718;
      }

      .cls-8 {
        fill: #ffdc72;
      }

      .cls-9 {
        fill: #ffca2b;
      }

      .cls-10 {
        fill: #ffedb3;
      }

      .cls-11 {
        fill: #2f81a2;
      }

      .cls-12 {
        fill: #3797be;
      }

      .cls-13 {
        fill: #1f556b;
      }

      .cls-14 {
        fill: #9b3d01;
      }

      .cls-15 {
        fill: #fcaf17;
      }

      .cls-16 {
        fill: #712d01;
      }

      .cls-17 {
        fill: #35b9ab;
      }

      .cls-18 {
        fill: #2d9d91;
      }

      .cls-19 {
        fill: #bf4b01;
      }

      .cls-20 {
        fill: #258278;
      }

      .cls-21 {
        fill: #d2d5d8;
      }

      .cls-22 {
        fill: #bfc4c8;
      }

      .cls-23 {
        fill: #99a0a7;
      }

      .cls-24 {
        fill: #ffc098;
      }

      .cls-25 {
        fill: #47cabc;
      }

      .cls-26 {
        fill: #42474c;
      }

      .cls-27 {
        fill: #fe9551;
      }

      .cls-28 {
        fill: #636a72;
      }

      .cls-29 {
        fill: #737c85;
      }

      .cls-30 {
        fill: #acb2b7;
      }

      .cls-31 {
        fill: #f2f3f4;
      }

      .cls-32 {
        fill: #5f991f;
      }

      .cls-33 {
        fill: #b9e787;
      }

      .cls-34 {
        fill: #ffe5d4;
      }

      .cls-35 {
        fill: #323232;
      }

      .cls-36 {
        fill: #dfe1e3;
      }
    </style>
  </defs>
  <g id="Group_1" data-name="Group 1" transform="translate(-812.819 -444.936)">
    <g id="g19118" transform="translate(812.819 444.936)">
      <path id="path13129" class="cls-1" d="M-217.859-101.546c-5.551.058-12.932,2.81-21.925,10.94-3.942,3.358-20.182.218-21.771-.475,0,0-31.486-4.646-37.474,24.053-13,37.487,30.746,67.655,46.018,66.287l.256-.009-.013.015c11.625.322,25.243,7.284,32.109,6.194C-211.461,4-204.307.2-201.387-15.272c1.752-8.614,12.117-8.614,17.081-14.307s9.49-12.556-2.628-34.017c-6.132-11.242-18.4-11.68-18.979-29.929-.169-3.123-4.339-8.1-11.946-8.02Z" transform="translate(302.857 101.546)"/>
      <path id="rect13167" class="cls-2" d="M-298.886-38.924q.274.772.575,1.533h118.6c.064-.243.123-.491.177-.744v-.006c0-.015.005-.03.007-.045.05-.241.1-.486.135-.738Z" transform="translate(302.857 101.546)"/>
      <path id="path13165" class="cls-2" d="M-252.339-25.493c-13.462,1.622-23.668,2.779-13.723,10.8,5.84,4.818,3.212,6.278,13.432,8.468s7.446-.146,21.023,2.336,21.753-.876,20.585-4.964,2.628-9.344,5.548-12.7,14.6-4.234,12.41-8.76-38.98-3.066-43.8-.876-15.475,5.694-15.475,5.694Z" transform="translate(302.857 101.546)"/>
      <g id="g10159" transform="translate(86.098 38.07)">
        <path id="path10123" class="cls-2" d="M170.9,80.966a10.067,10.067,0,0,1,2.414.148c4.305,1.739-3.909,2.707-8.247,8.277-.719,1.234-1.3,2.309-1.723,3.208-.627.06-1.359.109-2.194.141.419-2.219,1.956-8.437,6.445-10.841a8.013,8.013,0,0,1,3.3-.933Z" transform="translate(-141.591 -76.234)"/>
        <path id="path10125" class="cls-2" d="M149.6,81.683a10.068,10.068,0,0,0-2.4.31c-4.179,2.024,4.083,2.438,8.785,7.7.8,1.182,1.455,2.216,1.935,3.085.629.018,1.363.017,2.2-.007-.568-2.186-2.52-8.286-7.16-10.383a8.014,8.014,0,0,0-3.36-.708Z" transform="translate(-141.591 -76.234)"/>
        <path id="path10127" class="cls-3" d="M146.525,82.386c-2.385,1.71,5.084,2.4,9.466,7.311.8,1.182,1.456,2.216,1.935,3.085.238.007.489.01.758.012-1.246-3.772-8.367-8.055-10.616-9.073-1.372-.621-1.6-1.065-1.542-1.334Z" transform="translate(-141.591 -76.234)"/>
        <path id="path10129" class="cls-2" d="M147.657,85.11a8.593,8.593,0,0,0-5.409,2.017c-2.969,3.57,4.725.533,11.183,3.386,1.3.8,2.392,1.511,3.207,2.133.678.052,1.5.089,2.471.09a1.479,1.479,0,0,0-.1-.443s-5.118-7.192-11.349-7.183Z" transform="translate(-141.591 -76.234)"/>
        <path id="path10131" class="cls-3" d="M141.991,87.457c-2.206,3.046,5.194.3,11.44,3.055,1.3.8,2.391,1.511,3.206,2.133.319.025.662.046,1.046.062-2.623-2.892-5.006-4.071-7.133-4.495a22.781,22.781,0,0,0-6.022.034c-2.449.094-2.624-.472-2.537-.789Z" transform="translate(-141.591 -76.234)"/>
        <path id="path10133" class="cls-4" d="M147.752,86.062a8.783,8.783,0,0,0-4.354,1.144.187.187,0,1,0,.2.314,8.447,8.447,0,0,1,4.668-1.075c2.655.129,6.154,1.467,9.707,6.272.156.005.306.012.472.015-2.711-3.749-5.438-5.522-7.811-6.244a9.669,9.669,0,0,0-2.351-.415c-.183-.009-.361-.012-.536-.01Z" transform="translate(-141.591 -76.234)"/>
        <path id="path10135" class="cls-4" d="M169.391,82.34a.187.187,0,0,1,.024.371,3.814,3.814,0,0,0-.831.282,7.5,7.5,0,0,0-2.018,1.357c-1.482,1.364-3.185,3.842-4.142,8.322-.127.009-.252.018-.385.026.967-4.606,2.721-7.191,4.276-8.621a7.9,7.9,0,0,1,2.118-1.426,4.223,4.223,0,0,1,.923-.307.186.186,0,0,1,.036,0Z" transform="translate(-141.591 -76.234)"/>
        <path id="path10137" class="cls-3" d="M174.019,81.46c2.494,1.546-4.91,2.74-8.952,7.931-.719,1.234-1.3,2.309-1.723,3.208-.238.023-.487.043-.755.063.99-3.847,7.806-8.6,9.982-9.767,1.327-.712,1.528-1.17,1.449-1.435Z" transform="translate(-141.591 -76.234)"/>
        <path id="path10139" class="cls-2" d="M173.162,84.226a8.594,8.594,0,0,1,5.532,1.649c3.2,3.362-4.679.85-10.93,4.13-1.244.883-2.285,1.668-3.056,2.344-.673.1-1.493.19-2.459.256a1.479,1.479,0,0,1,.072-.449s4.622-7.52,10.84-7.93Z" transform="translate(-141.591 -76.234)"/>
        <path id="path10141" class="cls-3" d="M178.973,86.188c2.406,2.89-5.163.645-11.208,3.817-1.244.883-2.284,1.668-3.056,2.344-.316.046-.658.091-1.039.133,2.422-3.062,4.721-4.4,6.814-4.964a22.781,22.781,0,0,1,6.011-.372c2.45-.071,2.587-.647,2.478-.958Z" transform="translate(-141.591 -76.234)"/>
        <path id="path10143" class="cls-4" d="M173.132,85.183a8.783,8.783,0,0,1,4.421.848.187.187,0,1,1-.183.327,8.446,8.446,0,0,0-4.73-.759c-2.641.307-6.042,1.878-9.263,6.911-.155.015-.3.032-.47.046,2.453-3.923,5.054-5.875,7.373-6.755a9.669,9.669,0,0,1,2.318-.572c.182-.021.36-.036.534-.047Z" transform="translate(-141.591 -76.234)"/>
        <path id="path10145" class="cls-4" d="M151.2,82.952a.187.187,0,0,0,0,.372,3.807,3.807,0,0,1,.848.225,7.5,7.5,0,0,1,2.1,1.219c1.571,1.261,3.436,3.619,4.693,8.025h.386c-1.275-4.53-3.2-6.992-4.846-8.314a7.9,7.9,0,0,0-2.209-1.281,4.221,4.221,0,0,0-.942-.244.187.187,0,0,0-.036,0Z" transform="translate(-141.591 -76.234)"/>
        <path id="path10147" class="cls-2" d="M160.365,76.234a2.541,2.541,0,0,0-1,.217c-3.387,4.469-1.481,12.913-.447,16.505.847-.012,1.923-.075,3.249-.211,1.256-4.6,2.078-16.466-1.8-16.512Z" transform="translate(-141.591 -76.234)"/>
        <path id="path10149" class="cls-3" d="M163.179,85.231c-.3,1.761-.99,1.672-1.751,2.486-1.03,1.1-.492,2.122-1.631,2.665s-2.017-2.661-2.017-2.661l-.014.008a41,41,0,0,0,1.148,5.227c.845-.012,1.92-.075,3.242-.21a36.344,36.344,0,0,0,1.022-7.516Z" transform="translate(-141.591 -76.234)"/>
        <path id="path10151" class="cls-4" d="M160.286,78.874a.242.242,0,0,0-.237.245l-.03,13.8c.157-.008.316-.017.485-.028l.031-13.767a.242.242,0,0,0-.248-.248Z" transform="translate(-141.591 -76.234)"/>
        <g id="g10155" transform="translate(11.399 15.388)">
          <path id="path10153" class="cls-3" d="M152.99,91.623l2.927,13.514h9.625l3.214-13.514H152.99Z" transform="translate(-152.99 -91.623)"/>
        </g>
        <path id="path10157" class="cls-5" d="M157.374,91.623l2.172,13.514h-3.633l-2.959-13.514Z" transform="translate(-141.591 -76.234)"/>
      </g>
      <path id="path13200" class="cls-6" d="M-274.385-69.842h10.537v8.108h-10.661Z" transform="translate(302.857 101.546)"/>
      <path id="path13194" class="cls-2" d="M-273.274-68.7h8.487V-63h-8.6Z" transform="translate(302.857 101.546)"/>
      <path id="path13196" class="cls-5" d="M-266.59-67.957l-1.877,3.154-2.056-2.056L-273.364-63h8.577v-3.286c-.719-.717-1.8-1.672-1.8-1.672Z" transform="translate(302.857 101.546)"/>
      <path id="path13198" class="cls-7" d="M-274.43-69.842l-.126,8.108h10.834v-8.108Zm.525.532h9.672v7.192h-9.786Z" transform="translate(302.857 101.546)"/>
      <g id="g10121" transform="translate(15.144 38.07)">
        <path id="path6407" class="cls-2" d="M170.9,80.966a10.067,10.067,0,0,1,2.414.148c4.305,1.739-3.909,2.707-8.247,8.277-.719,1.234-1.3,2.309-1.723,3.208-.627.06-1.359.109-2.194.141.419-2.219,1.956-8.437,6.445-10.841a8.013,8.013,0,0,1,3.3-.933Z" transform="translate(-141.591 -76.234)"/>
        <path id="path6409" class="cls-2" d="M149.6,81.683a10.068,10.068,0,0,0-2.4.31c-4.179,2.024,4.083,2.438,8.785,7.7.8,1.182,1.455,2.216,1.935,3.085.629.018,1.363.017,2.2-.007-.568-2.186-2.52-8.286-7.16-10.383a8.014,8.014,0,0,0-3.36-.708Z" transform="translate(-141.591 -76.234)"/>
        <path id="path6411" class="cls-3" d="M146.525,82.386c-2.385,1.71,5.084,2.4,9.466,7.311.8,1.182,1.456,2.216,1.935,3.085.238.007.489.01.758.012-1.246-3.772-8.367-8.055-10.616-9.073-1.372-.621-1.6-1.065-1.542-1.334Z" transform="translate(-141.591 -76.234)"/>
        <path id="path6413" class="cls-2" d="M147.657,85.11a8.593,8.593,0,0,0-5.409,2.017c-2.969,3.57,4.725.533,11.183,3.386,1.3.8,2.392,1.511,3.207,2.133.678.052,1.5.089,2.471.09a1.479,1.479,0,0,0-.1-.443s-5.118-7.192-11.349-7.183Z" transform="translate(-141.591 -76.234)"/>
        <path id="path6415" class="cls-3" d="M141.991,87.457c-2.206,3.046,5.194.3,11.44,3.055,1.3.8,2.391,1.511,3.206,2.133.319.025.662.046,1.046.062-2.623-2.892-5.006-4.071-7.133-4.495a22.781,22.781,0,0,0-6.022.034c-2.449.094-2.624-.472-2.537-.789Z" transform="translate(-141.591 -76.234)"/>
        <path id="path6417" class="cls-4" d="M147.752,86.062a8.783,8.783,0,0,0-4.354,1.144.187.187,0,1,0,.2.314,8.447,8.447,0,0,1,4.668-1.075c2.655.129,6.154,1.467,9.707,6.272.156.005.306.012.472.015-2.711-3.749-5.438-5.522-7.811-6.244a9.669,9.669,0,0,0-2.351-.415c-.183-.009-.361-.012-.536-.01Z" transform="translate(-141.591 -76.234)"/>
        <path id="path6419" class="cls-4" d="M169.391,82.34a.187.187,0,0,1,.024.371,3.814,3.814,0,0,0-.831.282,7.5,7.5,0,0,0-2.018,1.357c-1.482,1.364-3.185,3.842-4.142,8.322-.127.009-.252.018-.385.026.967-4.606,2.721-7.191,4.276-8.621a7.9,7.9,0,0,1,2.118-1.426,4.223,4.223,0,0,1,.923-.307.186.186,0,0,1,.036,0Z" transform="translate(-141.591 -76.234)"/>
        <path id="path6421" class="cls-3" d="M174.019,81.46c2.494,1.546-4.91,2.74-8.952,7.931-.719,1.234-1.3,2.309-1.723,3.208-.238.023-.487.043-.755.063.99-3.847,7.806-8.6,9.982-9.767,1.327-.712,1.528-1.17,1.449-1.435Z" transform="translate(-141.591 -76.234)"/>
        <path id="path6423" class="cls-2" d="M173.162,84.226a8.594,8.594,0,0,1,5.532,1.649c3.2,3.362-4.679.85-10.93,4.13-1.244.883-2.285,1.668-3.056,2.344-.673.1-1.493.19-2.459.256a1.479,1.479,0,0,1,.072-.449s4.622-7.52,10.84-7.93Z" transform="translate(-141.591 -76.234)"/>
        <path id="path6425" class="cls-3" d="M178.973,86.188c2.406,2.89-5.163.645-11.208,3.817-1.244.883-2.284,1.668-3.056,2.344-.316.046-.658.091-1.039.133,2.422-3.062,4.721-4.4,6.814-4.964a22.781,22.781,0,0,1,6.011-.372c2.45-.071,2.587-.647,2.478-.958Z" transform="translate(-141.591 -76.234)"/>
        <path id="path6427" class="cls-4" d="M173.132,85.183a8.783,8.783,0,0,1,4.421.848.187.187,0,1,1-.183.327,8.446,8.446,0,0,0-4.73-.759c-2.641.307-6.042,1.878-9.263,6.911-.155.015-.3.032-.47.046,2.453-3.923,5.054-5.875,7.373-6.755a9.669,9.669,0,0,1,2.318-.572c.182-.021.36-.036.534-.047Z" transform="translate(-141.591 -76.234)"/>
        <path id="path6429" class="cls-4" d="M151.2,82.952a.187.187,0,0,0,0,.372,3.807,3.807,0,0,1,.848.225,7.5,7.5,0,0,1,2.1,1.219c1.571,1.261,3.436,3.619,4.693,8.025h.386c-1.275-4.53-3.2-6.992-4.846-8.314a7.9,7.9,0,0,0-2.209-1.281,4.221,4.221,0,0,0-.942-.244.187.187,0,0,0-.036,0Z" transform="translate(-141.591 -76.234)"/>
        <path id="path6431" class="cls-2" d="M160.365,76.234a2.541,2.541,0,0,0-1,.217c-3.387,4.469-1.481,12.913-.447,16.505.847-.012,1.923-.075,3.249-.211,1.256-4.6,2.078-16.466-1.8-16.512Z" transform="translate(-141.591 -76.234)"/>
        <path id="path6433" class="cls-3" d="M163.179,85.231c-.3,1.761-.99,1.672-1.751,2.486-1.03,1.1-.492,2.122-1.631,2.665s-2.017-2.661-2.017-2.661l-.014.008a41,41,0,0,0,1.148,5.227c.845-.012,1.92-.075,3.242-.21a36.344,36.344,0,0,0,1.022-7.516Z" transform="translate(-141.591 -76.234)"/>
        <path id="path6435" class="cls-4" d="M160.286,78.874a.242.242,0,0,0-.237.245l-.03,13.8c.157-.008.316-.017.485-.028l.031-13.767a.242.242,0,0,0-.248-.248Z" transform="translate(-141.591 -76.234)"/>
        <g id="g10101" transform="translate(11.399 15.388)">
          <path id="path1472" class="cls-3" d="M152.99,91.623l2.927,13.514h9.625l3.214-13.514H152.99Z" transform="translate(-152.99 -91.623)"/>
        </g>
        <path id="path14177" class="cls-5" d="M157.383,91.623l2.157,13.514h-3.633l-2.943-13.514Z" transform="translate(-141.591 -76.234)"/>
      </g>
      <path id="path7251" class="cls-8" d="M-248.908-60.97s-10.074-.219-10.366,9.636c-.219,8.1-2.044,37.958,7.227,39.71,2.774.73,5.548-2.993,11.388-1.606,6.059,1.168,11.1-1.752,11.169-8.906-.219-4.745-10.293-19.417-11.461-22.921s-7.957-15.913-7.957-15.913Z" transform="translate(302.857 101.546)"/>
      <path id="path13119" class="cls-9" d="M-250.121-60.189s-2.761.258-2.039,5.11,1.281,11.008,1.39,14.111-.292,9.234,3.905,10.147c3.8.766,9.417-.146,10.548.73s4.907,11.067,4.648,11.48-1.755,5.368-8.878,4.233c-5.678-1.084-8.414,1.5-10.014,1.6-1.4.09-4.637-.136-6.744-5.2,1.135,3.464,2.808,5.888,5.256,6.351,2.774.73,5.548-2.993,11.388-1.606,6.059,1.168,11.1-1.752,11.169-8.906-.219-4.745-10.293-19.417-11.461-22.921-.968-2.905-5.6-11.55-7.219-14.55a11.621,11.621,0,0,0-1.95-.582Z" transform="translate(302.857 101.546)"/>
      <path id="path13117" class="cls-10" d="M-250.66-60.532c-.182.036-5.657.474-7.519,5.548-.146,1.314,1.423,1.058,2.336.073s3.029-4.745,5.8-4.891c1.606-.328.73-1.058-.62-.73Z" transform="translate(302.857 101.546)"/>
      <path id="path7249" class="cls-9" d="M-248.34-60.576s-8.207,2.839-7.639,10.22C-255-44.472-253.863-31-251.54-30.329s14.4,3.562,16.621-1.5c2.22-5.11-12.268-29.16-13.42-28.751Z" transform="translate(302.857 101.546)"/>
      <path id="path7239" class="cls-11" d="M-220.962-19.894a14.385,14.385,0,0,0-2.946.451c.012.027.028.057.038.082-.529,1.569-3.194,1.332-3.194,1.332l-.076-.128c-.1.676-.159,2.239,1.171,2.847.931.383,2.555-1.15,3.522-1.35s3.373-.841,3.321-2.416c-.057-.644-.849-.838-1.837-.818Z" transform="translate(302.857 101.546)"/>
      <path id="path13298" class="cls-12" d="M-223.616-19.392a12.169,12.169,0,0,1,3.458-.316c.955.219-.419.477-1.749.671s-2.62.587-1.71-.355Z" transform="translate(302.857 101.546)"/>
      <path id="path13288" class="cls-13" d="M-219.133-18.962c-5.945,1.048-5.149,2.019-6.006,2.119s-.666-1.142-.649-1.243a5.876,5.876,0,0,1-1.276.058l-.076-.128c-.1.676-.159,2.239,1.171,2.847.931.383,2.555-1.15,3.522-1.35.943-.2,3.247-.812,3.314-2.3Z" transform="translate(302.857 101.546)"/>
      <path id="path7241" class="cls-11" d="M-219.236-27.047a13.484,13.484,0,0,0-2.693.4l.267.551a3.178,3.178,0,0,1-2.938.8,4.65,4.65,0,0,1-.338-.458l-.177.056s-.579,2.3,1.069,3.05c.894.368,2.455-1.1,3.384-1.3s3.24-.809,3.191-2.321c-.054-.618-.816-.8-1.765-.785Z" transform="translate(302.857 101.546)"/>
      <path id="path13300" class="cls-12" d="M-219.236-27.047a13.484,13.484,0,0,0-2.693.4l.212.437c1.036-.121,2.824-.444,2.984-.725.029-.051-.018-.085-.114-.107-.125-.006-.255-.009-.389-.006Z" transform="translate(302.857 101.546)"/>
      <path id="path13290" class="cls-13" d="M-217.478-26.146c-4.877.58-5.106,1.8-5.589,2.022-.511.237-.766-1.022-.766-1.022l-.025-.026a2.383,2.383,0,0,1-.741-.12,4.652,4.652,0,0,1-.338-.458l-.177.056s-.579,2.3,1.069,3.051c.894.368,2.455-1.1,3.384-1.3.9-.188,3.112-.779,3.183-2.2Z" transform="translate(302.857 101.546)"/>
      <path id="path7225" class="cls-14" d="M-241.6-42.23s-.636,5.94,3.066,6.749c3.413.694,7.076-1.628,8.089,1.9.926,2.89,4.389,7.456,4.8,7.415a44.676,44.676,0,0,0,4.049-2.166l-5.849-10.708S-230.071-43.5-241.6-42.23Z" transform="translate(302.857 101.546)"/>
      <path id="path13121" class="cls-15" d="M-249.537-60.054a15.059,15.059,0,0,0-2.41,1.485,6.708,6.708,0,0,0-.213,3.49c.723,4.852,1.281,11.008,1.39,14.111s-.292,9.234,3.905,10.147c3.721.751,9.194-.11,10.473.682a3.869,3.869,0,0,0,1.471-1.685c1.856-4.273-7.967-21.783-11.909-27.166a12.3,12.3,0,0,0-2.708-1.062Z" transform="translate(302.857 101.546)"/>
      <path id="path13153" class="cls-16" d="M-234.844-35.485c.423-.043.87-.095,1.258-.109a5.707,5.707,0,0,1,1.04.044,2.722,2.722,0,0,1,.893.281,2.125,2.125,0,0,1,.713.621,3.3,3.3,0,0,1,.5,1.066,13.977,13.977,0,0,0,1.082,2.383c.461.834.994,1.674,1.51,2.423s1.016,1.406,1.413,1.873.69.745.792.735c.062-.006.476-.247.664-.335-.251-.566-4.683-10.481-8.124-11.545-2.058-.636-2.2.88-1.739,2.563Z" transform="translate(302.857 101.546)"/>
      <path id="path7171" class="cls-17" d="M-251.1-57.711s1.11-8.155,8.8-5.342c2.581.929,5.523,10.065,5.833,22.3-3.149.877-12.44.826-12.44.826S-251.9-56.6-251.1-57.711Z" transform="translate(302.857 101.546)"/>
      <path id="path13060" class="cls-18" d="M-249.273-58.743s-.941,2.14-1.833,4.157c.488,5.128,2.2,14.657,2.2,14.657s9.291.052,12.44-.826c-.064-2.545-.246-4.947-.513-7.176h0c-.029-.247-.062-.486-.094-.728a.033.033,0,0,1,0,0,.018.018,0,0,1,0,0c-.194-1.493-.423-2.905-.686-4.211-.009.024-.018.044-.027.071-.594,1.936-2.632,2.219-5.291,1.884-1.958-.247-2.3.527-2.352.952a1.369,1.369,0,0,1-.233-.048c-.8-8.322-3.613-8.723-3.613-8.723Z" transform="translate(302.857 101.546)"/>
      <path id="path7223" class="cls-14" d="M-248.908-39.929s-.8,7.5,3.869,8.524c4.307.876,10.22-1.825,11.5,2.628,1.168,3.65,4.249,9.185,4.765,9.134a56.358,56.358,0,0,0,5.11-2.736L-231.049-35.9s-3.315-5.628-17.859-4.026Z" transform="translate(302.857 101.546)"/>
      <path id="path13143" class="cls-19" d="M-243.3-40.206c1.586.831,6.932,2.761,9.206,3.735,2.316.993,8.635,12.556,9.693,14.516.442-.254.733-.424.733-.424L-231.048-35.9s-2.435-4.117-12.251-4.3Z" transform="translate(302.857 101.546)"/>
      <path id="path13055" class="cls-20" d="M-250.87-52.472c.292,2.34.706,5.041,1.084,7.363.592,1.017,1.319,1.954,1.955,1.859.961-.143,7.664-.886,11.156-1.553q-.086-1.123-.2-2.2a8.971,8.971,0,0,0-1.411.337c-3.5,1.095-9.161,2.263-9.745,1.825C-248.509-45.194-250.227-50.463-250.87-52.472Z" transform="translate(302.857 101.546)"/>
      <path id="path13136" class="cls-16" d="M-245.375-40.189c-1.1.039-2.271.12-3.533.259,0,0-.8,7.5,3.869,8.524,4.307.876,10.22-1.825,11.5,2.628,1.168,3.65,4.249,9.185,4.765,9.134a14.2,14.2,0,0,0,2.2-1.086,64.726,64.726,0,0,1-3.6-7.069c-2.787-6.039-8.207-5.832-11.768-5.419-2.867.332-3.352-4.8-3.435-6.97Z" transform="translate(302.857 101.546)"/>
      <path id="path7186" class="cls-21" d="M-226.863-56.736l-22.045,16.806h32.849l11.68-16.733Z" transform="translate(302.857 101.546)"/>
      <path id="path13220" class="cls-22" d="M-223.181-42.935c-.828.083-2.729-.811-2.822.619.09.6.744.465.747.464a1.278,1.278,0,0,0,1.021.446c2.637.31,2.8-1.533,2.655-1.953-.055-.157-1.112.408-1.6.424Z" transform="translate(302.857 101.546)"/>
      <path id="path13218" class="cls-22" d="M-235.842-45.531l-.949,1.058h15.877l2.226-6.643Z" transform="translate(302.857 101.546)"/>
      <path id="path7184" class="cls-22" d="M-225.33-46.114h-10.585l7.081-5.438,10.11.109Z" transform="translate(302.857 101.546)"/>
      <path id="path7188" class="cls-23" d="M-223.048-51.079h-4.7l-4.7,4.1h7.3Z" transform="translate(302.857 101.546)"/>
      <path id="path7175" class="cls-24" d="M-231.556-53.465a3.991,3.991,0,0,0-1.857.812l-.14,1.365a1.6,1.6,0,0,1,1.137.054c.877.31,2.787-.387,3.149-.439s-.464-.723-1.445-1.549a1.176,1.176,0,0,0-.843-.244Z" transform="translate(302.857 101.546)"/>
      <path id="path7173" class="cls-17" d="M-237.922-53.378l4.544.383-.31,3.011h-3.577s-.566-3.321-.657-3.394Z" transform="translate(302.857 101.546)"/>
      <path id="path13073" class="cls-25" d="M-237.891-53.281c.032.1.078.315.135.6a25.945,25.945,0,0,0,4.241.163c-.036-.21.3-.338-.2-.374-.466-.034-3.587-.354-4.175-.387Z" transform="translate(302.857 101.546)"/>
      <path id="path13068" class="cls-18" d="M-237.476-51.182c.1.552.211,1.2.211,1.2h3.577l.114-1.109a7.281,7.281,0,0,1-3.9-.09Z" transform="translate(302.857 101.546)"/>
      <path id="path7155" class="cls-24" d="M-239.617-69.609s-2.271,7.794-8.362,2.994c-1.084-1.394,2.581-.052,1.5-2.478-.413-1.652,4.491,2.374,6.865-.516Z" transform="translate(302.857 101.546)"/>
      <path id="path7157" class="cls-24" d="M-246.772-65.8l-.019.012s-.839,3.5-.292,3.759,2.372,1.569,3.759-.839a3.929,3.929,0,0,0,.073-2.226s-.022-.038-.063-.1a4.4,4.4,0,0,1-3.459-.608Z" transform="translate(302.857 101.546)"/>
      <path id="path7162" class="cls-26" d="M-243.737-75.1a8.623,8.623,0,0,0-2.358.408c-2.168.155-6.349,3.123-2.142,7.691.021.015.045.028.067.042-.2-.814,2.662.048,1.688-2.132-.409-1.634,4.393,2.3,6.794-.417,0-.008.071-.092.071-.1s.575-5.557-4.12-5.493Z" transform="translate(302.857 101.546)"/>
      <path id="path7167" class="cls-17" d="M-249.127-58.743s-2.336-.547-2.007,2.956.912,11.716,4.015,11.862c2.372.109,10.475-2.117,10.366-3.175a18.2,18.2,0,0,0-.511-2.482s-8.285.109-9.088.219c-.146-.182.182-9.125-2.774-9.38Z" transform="translate(302.857 101.546)"/>
      <path id="path13088" class="cls-27" d="M-233.088-52.878c-.172.111-.294.2-.325.226l-.14,1.365a1.6,1.6,0,0,1,1.137.054c.877.31,2.787-.387,3.149-.439.1-.014.1-.076.049-.17a1.425,1.425,0,0,1-1.111-.1,7.673,7.673,0,0,0-2.728-.009c-.185-.014-.084-.643-.03-.924Z" transform="translate(302.857 101.546)"/>
      <path id="path7169" class="cls-24" d="M-237.263-49.561l2.826.107.657-2.245s4.873-.073,4.964.474-1.752.785-1.861,1.241-.109,2.737-1.679,2.756-4.435-.143-4.435-.143Z" transform="translate(302.857 101.546)"/>
      <path id="path7180" class="cls-28" d="M-224.564-57.32l7.373-4.562-1.533,10.439-6.606,5.329Z" transform="translate(302.857 101.546)"/>
      <path id="path7190" class="cls-23" d="M-235.915-46.114v.657h10.581l0-.657Z" transform="translate(302.857 101.546)"/>
      <path id="path13096" class="cls-26" d="M-217.191-61.882l-.011.007-8.118,15.607-.01.153,6.606-5.329Z" transform="translate(302.857 101.546)"/>
      <path id="path7192" class="cls-29" d="M-225.33-46.114l6.606-5.329v.358l-6.61,5.627Z" transform="translate(302.857 101.546)"/>
      <path id="path7201" class="cls-26" d="M-220.512-37.41V-8.375h3.139V-37.41Z" transform="translate(302.857 101.546)"/>
      <path id="path7198" class="cls-26" d="M-245.769-37.41V-8.375h3.139V-37.41Z" transform="translate(302.857 101.546)"/>
      <path id="path13160" class="cls-19" d="M-227.319-38.489c-.632.01-1.049.23-.711.521.523.448,5.54,9.309,5.9,9.944l.536-.31-5.542-10.146c-.061,0-.125-.01-.183-.009Z" transform="translate(302.857 101.546)"/>
      <path id="path7194" class="cls-30" d="M-248.908-39.929v2.52H-216l-.062-2.52Z" transform="translate(302.857 101.546)"/>
      <path id="path7196" class="cls-23" d="M-216.059-39.929l11.68-16.733v2.1L-216-37.41Z" transform="translate(302.857 101.546)"/>
      <path id="path7203" class="cls-26" d="M-204.38-54.563l-2.683,3.961V-28.87h2.683Z" transform="translate(302.857 101.546)"/>
      <path id="path7227" class="cls-24" d="M-225.191-21.507c-1.015.577-2.227,1.252-2.984,1.615l1.111,1.863s2.664.237,3.194-1.332a14.5,14.5,0,0,0-1.321-2.145Z" transform="translate(302.857 101.546)"/>
      <path id="path13131" class="cls-27" d="M-225.191-21.507c-1.015.577-2.227,1.252-2.984,1.615l1.111,1.863a5.887,5.887,0,0,0,1.271-.058c-.386-.5-1.209-1.233-1.235-1.512-.031-.339,1.528-1.308,2.039-1.616-.069-.1-.142-.206-.2-.292Z" transform="translate(302.857 101.546)"/>
      <path id="path7229" class="cls-24" d="M-222.5-27.816c-.869.5-2.119,1.2-2.771,1.5a5.476,5.476,0,0,0,.668,1.021,3.178,3.178,0,0,0,2.938-.8Z" transform="translate(302.857 101.546)"/>
      <path id="path13148" class="cls-27" d="M-222.5-27.816c-.869.5-2.119,1.2-2.771,1.5a5.476,5.476,0,0,0,.668,1.021,2.342,2.342,0,0,0,.725.12c-.509-1.285.879-2.02,1.542-2.305Z" transform="translate(302.857 101.546)"/>
      <path id="path10161" class="cls-31" d="M-222.72-46.917c-2.792.055-3.066,1.131-3.066,1.131a2.3,2.3,0,0,0,.169.863c-.374-.033-.789.036-.838.5-.039.839.826,1.613,1.252,1.458.279-.1.451-.062.534-.165a1.422,1.422,0,0,0,.927.535c2.737.219,2.847-2.372,3.011-3.139.182-.748-1.04-1.241-1.989-1.186Zm-3.037,2.413a.944.944,0,0,1,.323.051,6.676,6.676,0,0,0,.422.954c-.62.415-1.07-.352-1.061-.653a.3.3,0,0,1,.316-.352Z" transform="translate(302.857 101.546)"/>
      <path id="path10173" class="cls-14" d="M-225.422-45.7a7,7,0,0,0,4.284-.219A3.408,3.408,0,0,0-225.422-45.7Z" transform="translate(302.857 101.546)"/>
      <path id="path1458-9" class="cls-6" d="M-302.731-69.842h10.708v8.108h-10.834Z" transform="translate(302.857 101.546)"/>
      <path id="path1465" class="cls-2" d="M-301.575-68.7h8.487V-63h-8.6Z" transform="translate(302.857 101.546)"/>
      <path id="path1467" class="cls-5" d="M-294.891-67.957l-1.877,3.154-2.056-2.056L-301.665-63h8.577v-3.286c-.719-.717-1.8-1.672-1.8-1.672Z" transform="translate(302.857 101.546)"/>
      <path id="path1460" class="cls-7" d="M-302.731-69.842l-.126,8.108h10.834v-8.108Zm.525.532h9.672v7.192h-9.786Z" transform="translate(302.857 101.546)"/>
      <path id="path14162" class="cls-6" d="M-288.984-79.2h10.708v8.108H-289.11Z" transform="translate(302.857 101.546)"/>
      <path id="path14164" class="cls-2" d="M-287.829-78.061h8.487v5.706h-8.6Z" transform="translate(302.857 101.546)"/>
      <path id="path14168" class="cls-7" d="M-288.984-79.2l-.126,8.108h10.834V-79.2Zm.525.532h9.672v7.192h-9.786Z" transform="translate(302.857 101.546)"/>
      <circle id="path14170" class="cls-32" cx="0.684" cy="0.684" r="0.684" transform="translate(17.169 24.836)"/>
      <path id="path14172" class="cls-4" d="M-279.622-76.816c-.659.035-1.006.969-1.391,1.713-.536,1.035-1.608,1.626-3.936,1.016a2.832,2.832,0,0,0-2.967.618l-.021,1.114h8.6v-4.425a.823.823,0,0,0-.28-.037Z" transform="translate(302.857 101.546)"/>
      <circle id="path12995" class="cls-6" cx="5.626" cy="5.626" r="5.626" transform="translate(33.148 15.833)"/>
      <path id="path13177" class="cls-1" d="M-264.084-85.713a1.429,1.429,0,0,0,.54.107c.028,0,.054,0,.082,0-.084-.043-.124-.066-.172-.088q-.224-.02-.449-.022Zm.622.111c1.041.535,4.546,2.639,3.641,6.384a5.5,5.5,0,0,1-6.9,3.942c.082.095.169.187.255.28a5.626,5.626,0,0,0,2.381.536,5.626,5.626,0,0,0,5.626-5.627,5.626,5.626,0,0,0-4.4-5.487q-.295-.018-.6-.029Z" transform="translate(302.857 101.546)"/>
      <path id="circle12997" class="cls-7" d="M-264.084-86.006A5.922,5.922,0,0,0-270-80.087a5.922,5.922,0,0,0,5.917,5.919,5.924,5.924,0,0,0,5.919-5.919A5.924,5.924,0,0,0-264.084-86.006Zm0,.584a5.331,5.331,0,0,1,5.335,5.335,5.331,5.331,0,0,1-5.335,5.335,5.329,5.329,0,0,1-5.333-5.335A5.329,5.329,0,0,1-264.084-85.422Z" transform="translate(302.857 101.546)"/>
      <path id="path13002" class="cls-7" d="M-264.479-84.577v4.447l-2.216-1.662-.351.468,3.151,2.362v-5.615Z" transform="translate(302.857 101.546)"/>
      <path id="path13021" class="cls-33" d="M-228.1-91.263h18.249v15.512h-18.176Z" transform="translate(302.857 101.546)"/>
      <path id="path13008" class="cls-7" d="M-228.272-91.58v.291l-.024,15.881h18.755V-91.58Zm.584.584h8.6v7.145h-8.61Zm9.182,0h8.38v7.145h-8.38Zm-9.194,7.729h8.61v7.275h-8.622Zm9.194,0h8.38v7.275h-8.38Z" transform="translate(302.857 101.546)"/>
      <path id="path13023" class="cls-27" d="M-246.772-65.8l-.019.012-.077.345a12.033,12.033,0,0,1,1.754,1.563,2.24,2.24,0,0,0,1.862.75,4,4,0,0,0,0-1.965s-.022-.038-.063-.1a4.4,4.4,0,0,1-3.459-.608Z" transform="translate(302.857 101.546)"/>
      <path id="path13030" class="cls-34" d="M-239.617-69.609a2.909,2.909,0,0,1-.7.622,7.184,7.184,0,0,1-2.4,3.56C-240.521-66.514-239.617-69.609-239.617-69.609Z" transform="translate(302.857 101.546)"/>
      <path id="path13036" class="cls-35" d="M-248.031-73.945c-.04,0-.077,0-.116.007-1.793,1.174-3.128,3.637-.091,6.935.021.015.045.028.067.042-.2-.814,2.662.048,1.688-2.132-.409-1.634,4.393,2.3,6.794-.417,0-.008.07-.092.071-.1a7.4,7.4,0,0,0,.01-.964c-.671,1.852-3.418,1.514-5.869.68-2.5-.852-1.626.439-2.787.31-1.7-.206.232-4.362.232-4.362Z" transform="translate(302.857 101.546)"/>
      <path id="path13041" class="cls-18" d="M-251.053-57.421a4.821,4.821,0,0,0-.081,1.634c.328,3.5.912,11.716,4.015,11.862,2.372.109,10.475-2.117,10.366-3.175-.035-.336-.1-.7-.172-1.052-1.562,1.063-7.18,2.63-9.755,2.8-3.15.251-4.327-11.616-4.371-12.073Z" transform="translate(302.857 101.546)"/>
      <path id="path13046" class="cls-25" d="M-246.864-49.618s.279-8.145-2.1-8.454c-1.11-.052.852,2.658.9,4.749S-247.117-48.984-246.864-49.618Z" transform="translate(302.857 101.546)"/>
      <path id="path13048" class="cls-25" d="M-245.952-49.071s8.322-.31,8.358-.073S-245.751-47.994-245.952-49.071Z" transform="translate(302.857 101.546)"/>
      <path id="path13066" class="cls-25" d="M-249.907-59.559s1.4-2.77,2.459-2.4c.867.42.468.451-.173.785C-248.6-60.424-250.318-59.139-249.907-59.559Z" transform="translate(302.857 101.546)"/>
      <path id="path13078" class="cls-27" d="M-228.872-51.307c-.43.312-2,.678-2.525,1.054-.594.426-.233.916-.646,1.742-.383.767-4.357.293-4.947.218l.2.922s2.865.161,4.435.143,1.569-2.3,1.679-2.756,1.953-.693,1.861-1.241a.147.147,0,0,0-.057-.083Z" transform="translate(302.857 101.546)"/>
      <path id="path13084" class="cls-27" d="M-233.679-51.571s1.35.575,1.259.94-.958,1.451-1.341,1.35-.52.036-.42-.3a12.475,12.475,0,0,1,.5-1.989Z" transform="translate(302.857 101.546)"/>
      <path id="path13086" class="cls-34" d="M-233.52-51.646a31.866,31.866,0,0,1,4.362.316c.219.1-.826.161-1.29.11s-2.607.071-3.071-.426Z" transform="translate(302.857 101.546)"/>
      <path id="path13093" class="cls-34" d="M-232.758-52.935a2.141,2.141,0,0,1,1.665-.4,6.2,6.2,0,0,1,1.437,1.177,1.434,1.434,0,0,1-1.017-.406c-.31-.356-.47-.689-.935-.566s-1.547.543-1.15.192Z" transform="translate(302.857 101.546)"/>
      <path id="path13101" class="cls-21" d="M-223.269-46.74a3.125,3.125,0,0,0-2.368.952l.213.088h0a3.408,3.408,0,0,1,4.281-.218.243.243,0,0,0,.107-.014c-.178-.433-1.168-.739-1.907-.794q-.17-.013-.33-.014Z" transform="translate(302.857 101.546)"/>
      <path id="path13107" class="cls-36" d="M-225.58-45.563c-.055,0-.112.036-.177.121.014.066.03.135.05.214,0,0,0,0,0,0,.036.125.088.3.154.492-.26-.04-.777-.039-.626.662.077.458.658,1.2,1.162.71,0-.025-.017-.078-.026-.12-.6.371-1.04-.373-1.032-.67a.3.3,0,0,1,.316-.352.944.944,0,0,1,.323.051,5.028,5.028,0,0,0,.419.938,2.294,2.294,0,0,0,.3.419.164.164,0,0,0,.045-.031,1.422,1.422,0,0,0,.927.535,2.592,2.592,0,0,0,1.8-.422,2,2,0,0,1-2.457-.606c-.723-1.069-.931-1.924-1.177-1.943Z" transform="translate(302.857 101.546)"/>
      <path id="path13182" class="cls-25" d="M-241.888-62.254a15.613,15.613,0,0,1,3.458,9.11c-.1,1.084-.594,1.961-1.213.8s.1-1.445-.852-3.329S-244.985-60.576-241.888-62.254Z" transform="translate(302.857 101.546)"/>
    </g>
  </g>
</svg>
