<svg xmlns="http://www.w3.org/2000/svg" width="562.141" height="495.893" viewBox="0 0 562.141 495.893">
  <defs>
    <style>
      .cls-1 {
        fill: #1976d2;
      }

      .cls-1, .cls-10, .cls-11, .cls-2, .cls-3, .cls-4, .cls-5, .cls-6, .cls-7, .cls-8, .cls-9 {
        fill-rule: evenodd;
      }

      .cls-2 {
        fill: #fbd9a5;
      }

      .cls-3 {
        fill: #e3bc81;
      }

      .cls-4 {
        fill: #ffe0b2;
      }

      .cls-5 {
        fill: #424242;
      }

      .cls-6 {
        fill: #fff;
      }

      .cls-7 {
        fill: #393636;
      }

      .cls-8 {
        fill: #90a4ae;
      }

      .cls-9 {
        fill: #607d8b;
      }

      .cls-10 {
        fill: #e3dbdb;
      }

      .cls-11 {
        fill: #303030;
      }

      .cls-12 {
        fill: gray;
      }
    </style>
  </defs>
  <g id="programmer-1653351" transform="translate(324.772 -509.79)">
    <path id="Path_2" data-name="Path 2" class="cls-1" d="M-82.5,667.93c3.521-2.373,5.325-.737,7.513,0l-5.657,18.65s-4.773-7.248-4.419-9.016,2.563-9.634,2.563-9.634Z"/>
    <path id="Path_3" data-name="Path 3" class="cls-1" d="M-4.383,667.93c-4.453-1.949-5.774-.765-7.513,0l5.657,18.65s4.773-7.248,4.419-9.016-2.563-9.634-2.563-9.634Z"/>
    <path id="Path_407" data-name="Path 407" class="cls-2" d="M-77.945,651.15l-3.107,56.929,45.536,64.393,49.643-68.214-18.464.643-5.893-54.357-31.714,27.643Z"/>
    <path id="Path_408" data-name="Path 408" class="cls-3" d="M-9.49,654.58l.354,10.96a83.749,83.749,0,0,1-14.849,22.981c-4.767,5.064-12.284,10.541-19.622,10.607-7.574-.1-13.2-6.288-20.153-10.43A88.911,88.911,0,0,1-78.61,663.949l1.414-10.43s10.607,11.314,10.607,12.374,4.419,5.48,7.071,8.662-1.237,4.419,6.187,5.657,10.607,2.3,13.612,1.768.884,1.591,3.889-1.591.884-.354,3.359-3.536,1.061-2.652,4.6-4.95a40.268,40.268,0,0,0,7.425-5.657c2.121-2.121.707.177,3.359-3.359s.884-2.3,2.652-3.536,3.005-2.3,3.005-2.3Z"/>
    <path id="Path_409" data-name="Path 409" class="cls-4" d="M-1.231,562.83.3,593.667c1.426-4.458,6.018-4.116,8.078-2.276.729,1.978.375,6.964-.278,13.1-.522,4.907-.818,10.328-2.548,14.051-2.253,5.4-5.862,7.639-8.75,10.179-.471,12.226-3.236,17.332-4.454,25.886-3.582,9.739-11.446,18.007-21.082,27.864-3.23,2.475-9.668,4.713-13.571,5a32.588,32.588,0,0,1-16.429-5c-9.03-7.495-14.133-16.179-20.178-25-3.009-9.658-7.527-16.234-9.107-26.429-5.51-1.967-7.851-6.51-10.8-11.964-3.095-7.756-1.963-14.425-1.607-22.411,1.9-2.738,3.482-3.6,5.625.089L-96.945,586.4c-2.208-11.374-2.836-21.985,8.571-26.786l30.357-13.036,45.357-1.607c5.242,4.85,12.04,8.5,11.428,17.857Z"/>
    <path id="Path_410" data-name="Path 410" class="cls-5" d="M.344,589l-6.314,19.509c-3.908-3.349-24.289-.242-35.608,1.957l-3.662,2.273-6.44.126-2.778-2.652a258.927,258.927,0,0,0-32.577-.631l-1.768,1.389L-93.6,594.3s-1.894,1.136-1.768,1.641,6.945,22.855,6.945,22.855c.3,1.046,1.545,1.311,1.967,2.245.437,4.115,3.121,6.906,6.493,8.741a73.4,73.4,0,0,0,24.244,0c3.042-3.811,4.261-7.987,5.682-12.122h5.051a64.87,64.87,0,0,0,5.3,10.859,52.559,52.559,0,0,0,29.673-1.515c2.8-3.48,3.047-6.717,3.472-9.723l2.967-2.778,5.3-22.855Z"/>
    <path id="Path_411" data-name="Path 411" class="cls-6" d="M-54.534,614.88l-2.054-1.25c-9.159-2.114-19.056-1.307-28.667-.93-.527,5.426.964,10.5,5.9,14.5,5.167,1.061,12.379,1.49,21.786-.446,3.342-3.23,3.457-7.469,3.036-11.875Z"/>
    <path id="Path_412" data-name="Path 412" class="cls-6" d="M-41.731,614.73l1.507-1.6c9.159-2.114,28.13-4.242,31.049-2.223-.053,5.89.233,10.726-3.631,13.87-5.167,1.061-15.093,3.132-24.5,1.2-2.71-3.041-4.846-6.833-4.425-11.239Z"/>
    <path id="Path_413" data-name="Path 413" class="cls-5" d="M-41.409,608.81C-33.448,603-19.171,597.342-17.3,597.646a42.662,42.662,0,0,1,5.8.382l2.589.612a1.137,1.137,0,0,1-.179,1.644c-.4.494-1.532.694-2.589.956l-3.036-.382c-4.163.6-10.39,2.853-14.2,5.965Z"/>
    <path id="Path_414" data-name="Path 414" class="cls-5" d="M-56.24,608.51c-8.581-4.855-23.431-9.079-25.257-8.645a44.351,44.351,0,0,0-5.733.818l-2.508.782A1.06,1.06,0,0,0-89.374,603a6.035,6.035,0,0,0,2.685.7l2.978-.6c4.211.237,10.664,1.876,14.805,4.515Z"/>
    <path id="Path_415" data-name="Path 415" class="cls-7" d="M3.234,589.79,5.019,578c2.272-9.3,3.71-18.238.893-24.464-.938-8.547-.268-17.386-11.25-24.107-12.946-13.608-30.222-18.865-49.821-19.643l3.214,4.464c-12.032-3.79-28.082,4.235-43.393,13.929l6.964-2.143c-11.762,6.764-15.008,17.675-21.607,26.786l2.143-.536a72.666,72.666,0,0,0,3.393,21.607l1.071-2.5c.838,7.679,5.037,13.084,6.786,23.036l1.786,2.857,2.5-5.893c-.655-6.8-1.31-8.948-1.964-13.214,1.95-5.691,4.243-9.837,7.143-11.25,16.617,4.3,34.1,3.131,52.143-1.607,6.488-5.288,14.726-6.033,21.214-7.036,4.418,4.35,6.1,6.795,7.578,11.6,1.581,5.121,1.121,10.363,2.993,15.439L1.091,593.9Z"/>
    <path id="Path_416" data-name="Path 416" class="cls-2" d="M-1.423,618.48c2.681-4.63,4.3-7.778,5.493-7.576,1.153.2,2.778-15.153,2.02-14.142,0-2.756-1.535-3.551-1.831-1.894a16.507,16.507,0,0,1-3.346,7.7C1.936,608.615-.219,613.524-1.36,618.8Z"/>
    <path id="Path_417" data-name="Path 417" class="cls-2" d="M-96.409,600.24c-1.9-.136-1.056,16.774.982,17.589.881.352,4.732,5,4.732,5C-91.972,615.927-94.2,608.069-96.409,600.24Z"/>
    <path id="Path_418" data-name="Path 418" class="cls-8" d="M-35.516,940.02l-4.041-194.96,18.5-16.878,2.143-11.25L-.695,695.325,2.7,678.182l16.334,9.8,23.486,7.071,15.4,9.6L66,705.664l19.908,10.018c22.8,17.562,22.476,104.05,42.594,149.41-1.332,11.625-3.866,23.251-6.523,34.876-11.264,16.7-28.712,29.272-43.571,43.571Z"/>
    <path id="Path_419" data-name="Path 419" class="cls-8" d="M-29.379,939.01l-10.228-193.7-16.649-11.774-.179-6.964-22.679-23.214L-87.8,677.3l-12.294,10.688c-5.515.969-12.927,3.076-23.486,7.071L-138.6,704.9l-8.728-1.028-19.64,11.8c-27.618,31.848-22.476,104.05-42.594,149.41,1.332,11.625,3.865,23.251,6.523,34.876,11.264,16.7,28.712,29.272,43.571,43.571Z"/>
    <path id="Path_420" data-name="Path 420" class="cls-9" d="M-4.445,667.83c-1.427,19.83-7.447,36.5-19.643,48.929v11.786l-16.429,17.143,19.931-15.278c2.224-3.965,1.767-4.419,2.926-12.579,3.668-4.257,6.925-3.843,11.89-2.911l12,22.821c.908-16.562,2.507-40.555-3.893-59.553Z"/>
    <path id="Path_421" data-name="Path 421" class="cls-9" d="M-543.278,918.54l-55.662,87.143H-36.8L-89.17,918.54H-543.288Z" transform="translate(274.168)"/>
    <path id="Path_422" data-name="Path 422" class="cls-9" d="M-167.23,715.94a13.277,13.277,0,0,0-1.547,4.923,83.154,83.154,0,0,1,23.193,39.828l4,31h2.5l-4.5-33c-2.283-14.83-11.753-28.916-23.646-42.751Z"/>
    <path id="Path_423" data-name="Path 423" class="cls-9" d="M85.993,715.94c.888,1.641,2.6,2.044,2.784,3.685-11.308,11-22.93,26.284-26.906,41.95l-1.525,30.116-4.091.707,3.616-33.354c2.283-14.83,14.228-29.269,26.121-43.1Z"/>
    <path id="Path_424" data-name="Path 424" class="cls-9" d="M-39.312,744.65l2.387,47.641-3.889.354L-41.61,745Z"/>
    <path id="Path_425" data-name="Path 425" class="cls-10" d="M-184.83,788.54H91.66a8.164,8.164,0,0,1,8.182,8.182v150.43a8.164,8.164,0,0,1-8.182,8.182H-184.83a8.164,8.164,0,0,1-8.182-8.182V796.722A8.164,8.164,0,0,1-184.83,788.54Z"/>
    <path id="Path_426" data-name="Path 426" class="cls-10" d="M-193.02,960.73v5.2c0,3.425,4.143,6.183,9.287,6.183H90.557c5.144,0,9.285-2.758,9.285-6.183v-5.2h-292.86Z"/>
    <path id="Path_427" data-name="Path 427" class="cls-9" d="M-82.437,667.83c1.427,19.83,16.386,41.25,28.583,53.676l-.606,10.826L-39.8,745.939-59.478,734.2c-2.224-3.965-1.666-7.626-1.815-10.357A13.574,13.574,0,0,0-74.7,719.212c-4.792,9.365-10.435,17.27-14,24.235-.908-16.562-6.926-46.262-.527-65.26Z"/>
    <path id="Path_428" data-name="Path 428" class="cls-11" d="M-13.733,558.06c2.35-2.625,12.2,21.053,9.233,21.82,1.008-10.926-4.582-28.753-10.927-29.384-25.45-10.652-53.884-2-81.667,6.018,2.106,3.247,5.77,1.063,9.287,1.959l-11.485,13.906,11.667-5.834c16.258,5.086,34.305,3.913,53.387-.884,4.651-2.9,10.257-5.636,20.506-7.6Z"/>
    <g id="Group_3" data-name="Group 3" transform="translate(3.929 4.527)">
      <path id="Path_877" data-name="Path 877" class="cls-12" d="M-70.825,853.67v7.872l-10.865,5.964,10.865,5.964V881.3L-90.06,870.78v-6.614l19.235-10.5Z"/>
      <path id="Path_878" data-name="Path 878" class="cls-12" d="M-42.708,849.8-50.8,885.018H-57.42l8.067-35.218Z"/>
      <path id="Path_879" data-name="Path 879" class="cls-12" d="M-30.208,881.3v-7.872l10.865-5.964L-30.186,861.5v-7.828l19.213,10.518V870.8l-19.235,10.5Z"/>
    </g>
  </g>
</svg>
